<svg width="41" height="42" viewBox="0 0 41 42" fill="none" xmlns="http://www.w3.org/2000/svg">
<path d="M0 11.0364V28.5107C3.21894 28.2041 5.51819 26.8245 6.28461 22.9925V11.9561C6.74446 8.58385 8.73714 6.74446 11.8028 6.28461H41V0H11.0364C7.51087 0.613132 5.82476 1.53283 3.21894 3.98536C1.37955 6.28461 0.459849 7.81744 0 11.0364Z" fill="#E30613"/>
<path d="M11.8029 12.5693V28.5108H16.7079V20.5401L20.54 24.9853L24.2188 20.5401V28.5108H29.1238V12.5693H24.5254L20.54 17.6277L16.5546 12.5693H11.8029Z" fill="#E30613"/>
<path d="M0 41.1627V34.9485H29.1238C32.3045 34.1963 34.3354 32.6492 34.7212 28.8171V18.3939C34.7212 15.6348 37.2478 12.7224 40.9266 12.7224V29.7368C40.6585 32.8409 39.8536 34.4886 37.8609 37.0944C35.2551 39.547 33.4157 40.6199 29.4304 41.1627H14.7152H0Z" fill="#E30613"/>
</svg>
