<svg width="34" height="35" viewBox="0 0 34 35" fill="none" xmlns="http://www.w3.org/2000/svg">
<g clip-path="url(#clip0)">
<path d="M0.20752 16.9844L10.8325 6.04689C11.1092 5.76204 11.5575 5.76204 11.8341 6.04689C12.1108 6.33175 12.1108 6.79317 11.8341 7.07796L2.41825 16.7708H33.2916C33.6832 16.7708 34 17.0969 34 17.5C34 17.903 33.6832 18.2291 33.2916 18.2291H2.41825L11.8341 27.9219C12.1108 28.2067 12.1108 28.6682 11.8341 28.953C11.6958 29.0954 11.5145 29.1666 11.3333 29.1666C11.1521 29.1666 10.9708 29.0954 10.8325 28.953L0.207451 18.0155C-0.0691948 17.7307 -0.0691948 17.2692 0.20752 16.9844Z" fill="black"/>
</g>
<defs>
<clipPath id="clip0">
<rect width="34" height="35" fill="white" transform="matrix(-1 0 0 1 34 0)"/>
</clipPath>
</defs>
</svg>
