<svg width="943" height="202" viewBox="0 0 943 202" fill="none" xmlns="http://www.w3.org/2000/svg">
<path d="M0 73.6063V148.079C13.7186 146.772 23.5176 140.893 26.784 124.561V77.5259C28.7438 63.154 37.2362 55.3148 50.3016 53.355H174.735V26.571H47.0353C32.0101 29.1841 24.8242 33.1037 13.7186 43.556C5.87941 53.355 1.9598 59.8877 0 73.6063Z" fill="#E30613"/>
<path d="M50.3019 80.1394V148.079H71.2064V114.109L87.5381 133.054L103.217 114.109V148.079H124.121V80.1394H104.523L87.5381 101.697L70.5532 80.1394H50.3019Z" fill="#E30613"/>
<path d="M0 202V175.516H124.121C137.676 172.31 146.332 165.717 147.976 149.385V104.963C147.976 93.2038 158.744 80.7917 174.422 80.7917V153.304C173.28 166.533 169.85 173.556 161.357 184.661C150.252 195.114 142.412 199.686 125.427 202H62.7137H0Z" fill="#E30613"/>
<path d="M318.872 69.4H358.064V166H328.532V109.558L303.14 152.476H293.204L267.812 109.558V166H238.28V69.4H277.472L298.172 103.348L318.872 69.4ZM449.453 166L444.485 151.234H412.607L407.777 166H371.897L408.743 69.4H448.073L485.333 166H449.453ZM420.473 127.36H436.619L428.477 102.796L420.473 127.36ZM580.043 69.4V96.31H534.779V166H504.695V69.4H580.043ZM693.858 69.4V166H663.912V130.948H630.792V166H600.708V69.4H630.792V104.038H663.912V69.4H693.858ZM782.581 69.4H811.837V166H781.891V115.492L747.805 166H718.687V69.4H748.633V119.77L782.581 69.4ZM914.498 69.4V94.93H887.864V166H857.78V94.93H831.146V69.4H914.498Z" fill="#E30613"/>
</svg>
