<svg width="31" height="31" viewBox="0 0 31 31" fill="none" xmlns="http://www.w3.org/2000/svg">
<g clip-path="url(#clip0)">
<path d="M30.6212 28.7958L21.8057 19.9803C23.5133 17.871 24.5414 15.1908 24.5414 12.2717C24.5414 5.50603 19.0364 0.000976562 12.2707 0.000976562C5.50499 0.000976562 0 5.50597 0 12.2716C0 19.0373 5.50505 24.5424 12.2707 24.5424C15.1899 24.5424 17.8701 23.5142 19.9793 21.8067L28.7948 30.6222C29.0467 30.8741 29.3774 31.0007 29.7081 31.0007C30.0388 31.0007 30.3694 30.8741 30.6213 30.6222C31.1263 30.1172 31.1263 29.3008 30.6212 28.7958ZM12.2707 21.9591C6.92843 21.9591 2.58333 17.6139 2.58333 12.2716C2.58333 6.92935 6.92843 2.58424 12.2707 2.58424C17.613 2.58424 21.9581 6.92935 21.9581 12.2716C21.9581 17.6139 17.613 21.9591 12.2707 21.9591Z" fill="black"/>
</g>
<defs>
<clipPath id="clip0">
<rect width="31" height="31" fill="white"/>
</clipPath>
</defs>
</svg>
