<svg width="31" height="31" viewBox="0 0 31 31" fill="none" xmlns="http://www.w3.org/2000/svg">
<path d="M30.9949 7.66211C30.978 7.49089 30.9113 7.31906 30.7941 7.17611C30.7489 7.12083 31.2115 7.58697 23.8915 0.267016C23.717 0.0925222 23.4802 0.000916046 23.249 0.000976592C22.6983 0.000976592 3.27287 0.000976592 2.72421 0.000976592C1.22188 0.000976592 -0.000366211 1.22322 -0.000366211 2.72555V28.276C-0.000366211 29.7783 1.22188 31.0006 2.72421 31.0006H28.2746C29.777 31.0006 30.9992 29.7783 30.9992 28.276C30.9993 6.22596 31.0017 7.73174 30.9949 7.66211ZM20.8881 1.81736V7.75087C20.8881 8.25165 20.4807 8.65906 19.9799 8.65906H18.8295V1.81736H20.8881ZM17.0131 1.81736V8.65906H8.59723C8.09646 8.65906 7.68904 8.25165 7.68904 7.75087V1.81736H17.0131ZM20.8881 19.4363H7.68904V18.2859C7.68904 17.7851 8.09646 17.3777 8.59723 17.3777H19.9799C20.4807 17.3777 20.8881 17.7851 20.8881 18.2859V19.4363ZM7.68904 29.1842V21.2526H20.8881V29.1842H7.68904ZM29.1829 28.276C29.1829 28.7768 28.7755 29.1842 28.2747 29.1842H22.7045C22.7045 28.0002 22.7045 19.6356 22.7045 18.2859C22.7045 16.7836 21.4822 15.5613 19.9799 15.5613H8.59723C7.0949 15.5613 5.87266 16.7836 5.87266 18.2859V29.1842H2.72427C2.22349 29.1842 1.81608 28.7768 1.81608 28.276V2.72555C1.81608 2.22477 2.22349 1.81736 2.72427 1.81736H5.87266V7.75087C5.87266 9.2532 7.0949 10.4754 8.59723 10.4754H19.9799C21.4822 10.4754 22.7045 9.2532 22.7045 7.75087V1.81736H22.8732L29.1829 8.1271V28.276Z" fill="black"/>
</svg>
