<svg width="31" height="31" viewBox="0 0 31 31" fill="none" xmlns="http://www.w3.org/2000/svg">
<g clip-path="url(#clip0)">
<path d="M15.4698 0.0302734C10.5384 0.0302734 6.52635 4.04235 6.52635 8.97371C6.52635 12.0282 8.06599 14.7296 10.4096 16.3437C8.22154 17.0988 6.21598 18.3461 4.53109 20.031C1.60915 22.953 0 26.8377 0 30.9698H2.41715C2.41715 23.7726 8.27252 17.9172 15.4698 17.9172C20.4012 17.9172 24.4132 13.9051 24.4132 8.97371C24.4132 4.04229 20.4012 0.0302734 15.4698 0.0302734ZM15.4698 15.5001C11.8712 15.5001 8.9435 12.5724 8.9435 8.97377C8.9435 5.37517 11.8712 2.44743 15.4698 2.44743C19.0684 2.44743 21.9961 5.37511 21.9961 8.97377C21.9961 12.5724 19.0684 15.5001 15.4698 15.5001Z" fill="black"/>
<path d="M25.924 23.4765V18.4004H23.5069V23.4765H18.4308V25.8936H23.5069V30.9696H25.924V25.8936H31V23.4765H25.924Z" fill="black"/>
</g>
<defs>
<clipPath id="clip0">
<rect width="31" height="31" fill="white"/>
</clipPath>
</defs>
</svg>
