<svg width="31" height="31" viewBox="0 0 31 31" fill="none" xmlns="http://www.w3.org/2000/svg">
<path d="M9.69541 9.19834H12.5584V12.2901C12.5584 12.6245 12.8294 12.8956 13.1638 12.8956H17.6795C18.0139 12.8956 18.285 12.6245 18.285 12.2901V9.19834H21.148C21.375 9.19834 21.5829 9.07137 21.6866 8.86945C21.7903 8.66753 21.7723 8.42455 21.64 8.24007L15.9138 0.252662C15.8001 0.0940898 15.6168 0 15.4217 0C15.2266 0 15.0433 0.0940898 14.9296 0.252662L9.20335 8.24007C9.07111 8.42455 9.05313 8.66753 9.15685 8.86945C9.26044 9.07137 9.46842 9.19834 9.69541 9.19834ZM15.4217 1.64463L19.9689 7.9874H17.6795C17.3452 7.9874 17.0741 8.25847 17.0741 8.59287V11.6846H13.7693V8.59287C13.7693 8.25847 13.4982 7.9874 13.1638 7.9874H10.8744L15.4217 1.64463Z" fill="black"/>
<path d="M28.0196 20.028L26.1964 14.894C26.1107 14.6526 25.8821 14.4912 25.6259 14.4912H5.37407C5.11778 14.4912 4.88927 14.6526 4.80354 14.894L2.98035 20.028C2.91454 20.2134 2.94281 20.4191 3.05628 20.5798C3.16974 20.7405 3.35417 20.836 3.55089 20.836H4.69056V30.3945C4.69056 30.7289 4.96163 30.9999 5.29603 30.9999H25.5473C25.8816 30.9999 26.1527 30.7289 26.1527 30.3945V20.8361H27.449C27.6458 20.8361 27.8302 20.7406 27.9436 20.5799C28.0571 20.4192 28.0854 20.2134 28.0196 20.028ZM5.80159 15.7021H20.1342L18.741 19.6252H4.40847L5.80159 15.7021ZM5.9015 20.8361H19.1685C19.4248 20.8361 19.6533 20.6747 19.7391 20.4333L20.3862 18.6109V29.789H18.4718V25.0865C18.4718 24.7521 18.2006 24.481 17.8663 24.481H8.48043C8.14603 24.481 7.87496 24.7521 7.87496 25.0865V29.789H5.9015V20.8361ZM9.0859 29.789V25.692H17.2608V29.789H9.0859ZM24.9418 29.789H21.5972V18.7302L22.202 20.4333C22.2878 20.6747 22.5163 20.8361 22.7726 20.8361H24.9418V29.789ZM23.2 19.6252L21.8069 15.7021H25.1983L26.5915 19.6252H23.2Z" fill="black"/>
<path d="M14.8429 27.135H11.5038C11.1694 27.135 10.8983 27.4061 10.8983 27.7405C10.8983 28.0749 11.1694 28.3459 11.5038 28.3459H14.8429C15.1773 28.3459 15.4484 28.0749 15.4484 27.7405C15.4484 27.4061 15.1773 27.135 14.8429 27.135Z" fill="black"/>
</svg>
