<svg width="45" height="46" viewBox="0 0 45 46" fill="none" xmlns="http://www.w3.org/2000/svg">
<path d="M0 12.1131V31.2922C3.53299 30.9557 6.05655 29.4416 6.89774 25.2356V13.1225C7.40245 9.4213 9.58954 7.40245 12.9543 6.89774H45V0H12.1131C8.24364 0.67295 6.39303 1.68238 3.53299 4.37418C1.51414 6.89774 0.504713 8.58011 0 12.1131Z" fill="white"/>
<path d="M12.9543 13.7959V31.2926H18.3379V22.5442L22.5439 27.4231L26.5816 22.5442V31.2926H31.9652V13.7959H26.9181L22.5439 19.3477L18.1697 13.7959H12.9543Z" fill="white"/>
<path d="M0 45.1783V38.3578H31.9651C35.4561 37.5323 37.6852 35.8343 38.1087 31.6283V20.1882C38.1087 17.1599 40.8817 13.9634 44.9194 13.9634V32.6377C44.6252 36.0447 43.7418 37.8531 41.5547 40.7131C38.6946 43.4049 36.6758 44.5826 32.3016 45.1783H16.1508H0Z" fill="white"/>
</svg>
