<svg width="214" height="48" viewBox="0 0 214 48" fill="none" xmlns="http://www.w3.org/2000/svg">
<path d="M0 17.0364V34.5107C3.21894 34.2041 5.51819 32.8245 6.28461 28.9925V17.9561C6.74446 14.5839 8.73714 12.7445 11.8028 12.2846H41V6H11.0364C7.51087 6.61313 5.82476 7.53283 3.21894 9.98536C1.37955 12.2846 0.459849 13.8174 0 17.0364Z" fill="#E30613"/>
<path d="M11.8029 18.5693V34.5108H16.7079V26.5401L20.54 30.9853L24.2188 26.5401V34.5108H29.1238V18.5693H24.5254L20.54 23.6277L16.5546 18.5693H11.8029Z" fill="#E30613"/>
<path d="M0 47.1627V40.9485H29.1238C32.3045 40.1963 34.3354 38.6492 34.7212 34.8171V24.3939C34.7212 21.6348 37.2478 18.7224 40.9266 18.7224V35.7368C40.6585 38.8409 39.8536 40.4886 37.8609 43.0944C35.2551 45.5469 33.4157 46.6199 29.4304 47.1627H14.7152H0Z" fill="#E30613"/>
<path d="M74.608 15.6H83.696V38H76.848V24.912L70.96 34.864H68.656L62.768 24.912V38H55.92V15.6H65.008L69.808 23.472L74.608 15.6ZM104.888 38L103.736 34.576H96.3437L95.2237 38H86.9037L95.4477 15.6H104.568L113.208 38H104.888ZM98.1677 29.04H101.912L100.024 23.344L98.1677 29.04ZM135.17 15.6V21.84H124.674V38H117.698V15.6H135.17ZM161.561 15.6V38H154.617V29.872H146.937V38H139.961V15.6H146.937V23.632H154.617V15.6H161.561ZM182.135 15.6H188.919V38H181.975V26.288L174.071 38H167.319V15.6H174.263V27.28L182.135 15.6ZM212.724 15.6V21.52H206.548V38H199.572V21.52H193.396V15.6H212.724Z" fill="#E30613"/>
</svg>
